<?xml version="1.0" encoding="iso-8859-1"?>
<!-- Generator: Adobe Illustrator 19.0.0, SVG Export Plug-In . SVG Version: 6.00 Build 0)  -->
<svg version="1.1" id="Capa_1" xmlns="http://www.w3.org/2000/svg" xmlns:xlink="http://www.w3.org/1999/xlink" x="0px" y="0px"
	 viewBox="0 0 512 512" style="enable-background:new 0 0 512 512;" xml:space="preserve">
<path style="fill:#FBA761;" d="M400.282,504.485H111.718c-26.562,0-48.094-21.532-48.094-48.094v-32.063h384.751v32.063
	C448.376,482.953,426.844,504.485,400.282,504.485z"/>
<path style="fill:#FA892D;" d="M95.687,456.391v-32.063H63.624v32.063c0,26.562,21.532,48.094,48.094,48.094h32.063
	C117.219,504.485,95.687,482.953,95.687,456.391z"/>
<path style="fill:#FBA761;" d="M448.376,256H63.624v-24.047c0-35.415,28.71-64.125,64.125-64.125H384.25
	c35.415,0,64.125,28.71,64.125,64.125V256z"/>
<path style="fill:#FA892D;" d="M159.812,167.828H127.75c-35.415,0-64.125,28.71-64.125,64.125V256h32.063v-24.047
	C95.687,196.538,124.397,167.828,159.812,167.828z"/>
<path style="fill:#F56C6C;" d="M440.36,376.235H71.64c-13.281,0-24.047-10.766-24.047-24.047l0,0
	c0-13.281,10.766-24.047,24.047-24.047h368.72c13.281,0,24.047,10.766,24.047,24.047l0,0
	C464.407,365.469,453.641,376.235,440.36,376.235z"/>
<path style="fill:#DB4D4D;" d="M79.656,352.188L79.656,352.188c0-13.281,10.766-24.047,24.047-24.047H71.64
	c-13.281,0-24.047,10.766-24.047,24.047l0,0c0,13.281,10.766,24.047,24.047,24.047h32.063
	C90.422,376.235,79.656,365.469,79.656,352.188z"/>
<path style="fill:#A27E77;" d="M440.36,304.094H71.64c-13.281,0-24.047-10.766-24.047-24.047l0,0
	C47.593,266.766,58.359,256,71.64,256h368.72c13.281,0,24.047,10.766,24.047,24.047l0,0
	C464.407,293.328,453.641,304.094,440.36,304.094z"/>
<path style="fill:#956B64;" d="M79.656,280.047L79.656,280.047c0-13.281,10.766-24.047,24.047-24.047H71.64
	c-13.281,0-24.047,10.766-24.047,24.047l0,0c0,13.281,10.766,24.047,24.047,24.047h32.063
	C90.422,304.094,79.656,293.328,79.656,280.047z"/>
<path style="fill:#A27E77;" d="M440.36,424.329H71.64c-13.281,0-24.047-10.766-24.047-24.047l0,0
	c0-13.281,10.766-24.047,24.047-24.047h368.72c13.281,0,24.047,10.766,24.047,24.047l0,0
	C464.407,413.563,453.641,424.329,440.36,424.329z"/>
<path style="fill:#956B64;" d="M79.656,400.282L79.656,400.282c0-13.281,10.766-24.047,24.047-24.047H71.64
	c-13.281,0-24.047,10.766-24.047,24.047l0,0c0,13.281,10.766,24.047,24.047,24.047h32.063
	C90.422,424.329,79.656,413.563,79.656,400.282z"/>
<polygon style="fill:#FBDC40;" points="256,448.376 424.329,376.235 87.671,376.235 "/>
<polygon style="fill:#FAD000;" points="143.781,376.235 87.671,376.235 256,448.376 284.055,436.352 "/>
<polygon style="fill:#E4DAD8;" points="256,31.562 127.75,31.562 151.796,71.64 127.75,111.718 256,111.718 "/>
<path style="fill:#B9CC29;" d="M87.671,304.094v24.047c21.375,0,21.381,24.047,42.756,24.047c21.374,0,21.374-16.031,42.747-16.031
	s21.374,16.031,42.747,16.031c21.377,0,21.377-16.031,42.754-16.031c21.377,0,21.377,16.031,42.754,16.031
	c21.375,0,21.375-16.031,42.749-16.031c21.375,0,21.375,16.031,42.749,16.031c21.374,0,24.043-24.047,45.417-24.047v-24.047H87.671z
	"/>
<rect x="87.671" y="304.094" style="fill:#A4BA29;" width="344.673" height="24.047"/>
<path d="M448.376,434.849c-4.151,0-7.515,3.365-7.515,7.515v14.027c0,22.376-18.204,40.579-40.579,40.579H111.718
	c-22.376,0-40.579-18.204-40.579-40.579v-14.027c0-4.15-3.364-7.515-7.515-7.515c-4.151,0-7.515,3.365-7.515,7.515v14.027
	c0,30.663,24.946,55.609,55.609,55.609h288.564c30.663,0,55.609-24.946,55.609-55.609v-14.027
	C455.89,438.214,452.527,434.849,448.376,434.849z"/>
<path d="M63.624,244.477c4.151,0,7.515-3.365,7.515-7.515v-5.01c0-31.215,25.396-56.611,56.611-56.611H384.25
	c31.215,0,56.611,25.396,56.611,56.611v5.01c0,4.15,3.364,7.515,7.515,7.515s7.515-3.365,7.515-7.515v-5.01
	c0-39.502-32.138-71.64-71.64-71.64H263.515V7.515C263.515,3.365,260.151,0,256,0c-4.151,0-7.515,3.365-7.515,7.515v16.532H127.75
	c-5.726,0-9.395,6.46-6.445,11.381l21.728,36.212l-21.728,36.212c-2.951,4.921,0.717,11.381,6.445,11.381h120.736v41.08H127.75
	c-39.502,0-71.64,32.138-71.64,71.64v5.01C56.11,241.113,59.473,244.477,63.624,244.477z M141.021,104.204l17.22-28.697
	c1.428-2.38,1.428-5.352,0-7.733l-17.22-28.697h107.464v65.127H141.021z"/>
<path d="M471.922,352.188c0-17.403-14.159-31.562-31.562-31.562h-0.501v-9.018h0.501c17.403,0,31.562-14.159,31.562-31.562
	s-14.159-31.562-31.562-31.562h-63.123c-4.151,0-7.515,3.365-7.515,7.515c0,4.15,3.364,7.515,7.515,7.515h63.123
	c9.116,0,16.532,7.417,16.532,16.532s-7.417,16.532-16.532,16.532H71.64c-9.116,0-16.532-7.417-16.532-16.532
	s7.416-16.532,16.532-16.532h268.524c4.151,0,7.515-3.365,7.515-7.515c0-4.15-3.364-7.515-7.515-7.515H71.64
	c-17.403,0-31.562,14.159-31.562,31.562s14.159,31.562,31.562,31.562h8.517v9.018H71.64c-17.403,0-31.562,14.159-31.562,31.562
	c0,9.626,4.336,18.254,11.153,24.047c-6.816,5.793-11.153,14.421-11.153,24.047c0,17.403,14.159,31.562,31.562,31.562h125.746
	c0.287,0,0.567-0.019,0.845-0.05l54.81,23.49c1.876,0.804,4.045,0.804,5.92,0l54.741-23.46c0.137,0.007,0.274,0.021,0.413,0.021
	H440.36c17.403,0,31.562-14.159,31.562-31.562c0-9.626-4.336-18.254-11.153-24.047C467.585,370.441,471.922,361.814,471.922,352.188
	z M424.83,311.609v9.867c-9.338,2.204-15.422,8.289-20.508,13.376c-6.272,6.273-10.172,9.822-17.394,9.822
	c-8.182,0-11.824-2.731-16.865-6.513c-5.655-4.241-12.692-9.519-25.885-9.519c-13.192,0-20.228,5.278-25.883,9.519
	c-5.041,3.78-8.683,6.513-16.865,6.513c-8.184,0-11.827-2.732-16.869-6.513c-5.656-4.24-12.693-9.519-25.886-9.519
	c-13.193,0-20.23,5.277-25.886,9.519c-5.042,3.781-8.685,6.513-16.869,6.513c-8.182,0-11.824-2.732-16.865-6.513
	c-5.654-4.24-12.691-9.519-25.883-9.519c-13.192,0-20.229,5.278-25.883,9.519c-5.041,3.78-8.683,6.513-16.865,6.513
	c-6.974,0-10.366-3.434-15.761-9.502c-4.633-5.21-10.176-11.444-19.479-13.689v-9.875H424.83z M71.64,416.814
	c-9.116,0-16.532-7.417-16.532-16.532s7.416-16.532,16.532-16.532h14.489l77.151,33.065H71.64z M256,440.2l-131.718-56.45h263.437
	L256,440.2z M456.892,400.282c0,9.116-7.417,16.532-16.532,16.532h-91.64l77.151-33.065h14.489
	C449.476,383.75,456.892,391.166,456.892,400.282z M71.64,368.72c-9.116,0-16.532-7.417-16.532-16.532s7.416-16.532,16.532-16.532
	h16.031c6.974,0,10.366,3.434,15.762,9.503c5.762,6.48,12.932,14.544,26.993,14.544c13.192,0,20.229-5.278,25.883-9.519
	c5.041-3.78,8.683-6.513,16.865-6.513s11.824,2.732,16.865,6.513c5.654,4.24,12.691,9.519,25.883,9.519
	c13.194,0,20.23-5.278,25.887-9.519c5.042-3.78,8.684-6.513,16.868-6.513c8.184,0,11.827,2.732,16.868,6.513
	c5.656,4.24,12.693,9.519,25.887,9.519c13.192,0,20.229-5.278,25.883-9.519c5.041-3.78,8.683-6.513,16.865-6.513
	c8.183,0,11.826,2.732,16.867,6.513c5.655,4.24,12.691,9.519,25.883,9.519c13.8,0,21.686-7.887,28.023-14.225
	c6.272-6.273,10.172-9.822,17.394-9.822c0.169,0,0.335-0.014,0.501-0.025c0.166,0.011,0.332,0.025,0.501,0.025h7.014
	c9.116,0,16.532,7.417,16.532,16.532s-7.417,16.532-16.532,16.532H71.64z"/>
<circle cx="256" cy="199.389" r="7.515"/>
<circle cx="304.595" cy="223.436" r="7.515"/>
<circle cx="399.781" cy="223.436" r="7.515"/>
<circle cx="112.219" cy="223.436" r="7.515"/>
<circle cx="208.407" cy="223.436" r="7.515"/>
<circle cx="352.689" cy="199.389" r="7.515"/>
<circle cx="159.311" cy="199.389" r="7.515"/>
<g>
</g>
<g>
</g>
<g>
</g>
<g>
</g>
<g>
</g>
<g>
</g>
<g>
</g>
<g>
</g>
<g>
</g>
<g>
</g>
<g>
</g>
<g>
</g>
<g>
</g>
<g>
</g>
<g>
</g>
</svg>
